<?xml version="1.0" standalone="no"?>
<!DOCTYPE svg PUBLIC "-//W3C//DTD SVG 20010904//EN"
 "http://www.w3.org/TR/2001/REC-SVG-20010904/DTD/svg10.dtd">
<svg version="1.0" xmlns="http://www.w3.org/2000/svg"
 width="400.000000pt" height="400.000000pt" viewBox="0 0 400.000000 400.000000"
 preserveAspectRatio="xMidYMid meet">
<metadata>
Created by potrace 1.12, written by Peter Selinger 2001-2015
</metadata>
<g transform="translate(0.000000,400.000000) scale(0.100000,-0.100000)">
<path d="M2066 3073 c-10 -3 -361 -305 -780 -673 l-761 -667 -3 668 -2 669
-30 0 -30 0 0 -1105 0 -1105 30 0 30 0 0 393 0 392 249 220 c137 120 252 220
257 221 5 1 254 -274 554 -612 538 -606 546 -614 583 -614 20 0 37 2 37 5 0 3
-253 289 -561 636 -309 346 -560 631 -558 633 2 2 227 200 499 440 l495 436
398 0 397 0 0 -1075 0 -1075 35 0 35 0 0 1075 0 1075 395 0 395 0 0 30 0 30
-779 0 c-428 0 -798 2 -822 4 -24 3 -53 2 -63 -1z"/>
</g>
</svg>
